<?xml version="1.0" encoding="UTF-8"?>
<svg id="Capa_2" data-name="Capa 2" xmlns="http://www.w3.org/2000/svg" viewBox="0 0 867.89 272.79">
  <defs>
    <style>
      .cls-1 {
        fill: #e1845e;
      }

      .cls-2 {
        fill: #c0d26c;
      }

      .cls-3 {
        fill: #80b1b4;
      }

      .cls-4 {
        fill: #362d55;
      }
    </style>
  </defs>
  <g id="Capa_1-2" data-name="Capa 1">
    <g>
      <g>
        <path class="cls-3" d="M709.71,271.07c-27.34-4.39-53.61-17.13-74.69-38.21-5.66-5.66-10.83-11.81-15.42-18.36-4.48-6.41-8.41-13.21-11.73-20.29-3.26-6.96-5.92-14.21-7.95-21.62-2.01-7.35-3.41-14.86-4.17-22.44-.76-7.55-.89-15.17-.39-22.75.23-3.46.55-6.92,1.02-10.35.24-1.76.52-3.52.85-5.27.29-1.57,1.13-5.14,1.13-5.14.34.51,3,4.26,4.1,5.51,3.38,3.84,6.69,7.76,10.26,11.43,4.93,5.07,10.22,9.78,15.84,14.07,13.04,9.96,27.79,17.67,43.44,22.63,7.06,2.24,14.32,3.93,21.67,5.05,0,0-2.17,8.42-3.44,27.36-1.83,27.32,5.5,54.77,19.48,78.39Z"/>
        <path class="cls-2" d="M854.96,194.44c-16.26,34.61-46.9,60.82-83.35,72.14-17.24,5.35-35.5,7.34-53.47,5.58-14.45-22.39-21.68-48.09-21.68-73.79,0-10.81,1.27-21.63,3.82-32.19,0,0,17.08,1.14,32.78-.32,35.65-3.32,68.86-22.73,91.91-50.1,5.07-6.01,9.64-12.46,13.64-19.24,4.93-8.36,8.99-17.22,12.12-26.41,21.36,38.38,22.78,84.88,4.23,124.34Z"/>
        <path class="cls-4" d="M841.37,55.56c-37.34-2.22-75.12,10.92-103.19,35.6-4.46,3.92-8.67,8.14-12.6,12.6-3.93,4.46-7.58,9.17-10.92,14.09-3.34,4.92-6.38,10.04-9.1,15.33s-5.1,10.75-7.14,16.33c-1.13,3.11-1.99,5.33-3.12,9.47-6.95-1.82-7.18-.92-23.95-6.61-11.83-4.02-11.78-4.02-25.87-11.48-18.52-9.81-33.53-25.49-44.87-43.08,7.4-25.18,22.25-47.91,42.12-65.01C668.22,10.93,699.85,0,731.48,0c34.91,0,69.82,13.32,96.45,39.95,4.94,4.94,9.42,10.16,13.44,15.61Z"/>
        <path class="cls-1" d="M846.2,62.56s-2.21,6.82-2.53,7.74c-1.43,4.07-3.14,8.05-4.99,11.95-3.68,7.74-8.1,15.13-13.17,22.04-10.12,13.79-22.82,25.66-37.27,34.81-5.97,3.78-12.23,7.09-18.72,9.9-20.92,9.04-44.79,12.95-67.51,10.73,0,0,2.36-7.14,2.72-8.06,1.55-4.01,3.39-7.94,5.31-11.79,3.77-7.58,8.12-14.86,13.08-21.72,9.82-13.58,22.04-25.39,36.13-34.48,6.1-3.93,12.52-7.36,19.17-10.25,20.91-9.08,45.03-13.07,67.77-10.86Z"/>
      </g>
      <g>
        <g>
          <path class="cls-4" d="M314.21,84.04c0-8.77,6.59-15.84,15.67-15.84,2.23,0,4.54.52,6.07,1.27v4.76c-1.75-1.05-3.62-1.66-6.07-1.66-6.33,0-11,4.84-11,11.48s4.67,11.44,11,11.44c2.44,0,4.32-.61,6.07-1.66v4.76c-1.53.74-3.84,1.27-6.07,1.27-9.08,0-15.67-7.07-15.67-15.8Z"/>
          <path class="cls-4" d="M341.53,68.72h16.93v4.23h-12.48v8.34h12.09v4.1h-12.09v9.51h12.74v4.36h-17.2v-30.55Z"/>
          <path class="cls-4" d="M363.88,68.72h4.1l15.63,18.72v-18.72h4.19v31.08l-19.73-24.14v23.61h-4.19v-30.55Z"/>
          <path class="cls-4" d="M399.58,72.87h-7.55v-4.15h19.55v4.15h-7.55v26.41h-4.45v-26.41Z"/>
          <path class="cls-4" d="M437.42,98.01v1.27h-4.54v-1.27c0-3.36-2.23-7.68-7.9-7.68h-4.5v8.95h-4.45v-30.55h9.73c7.07,0,11.65,4.98,11.65,10.87,0,4.36-2.62,7.33-5.11,8.73,3.8,2.18,5.11,6.02,5.11,9.69ZM425.94,72.87h-5.46v13.44h5.46c4.19,0,6.85-3.32,6.85-6.72,0-3.71-2.62-6.72-6.85-6.72Z"/>
          <path class="cls-4" d="M441.39,84.04c0-8.77,6.59-15.84,15.67-15.84s15.67,7.07,15.67,15.84-6.59,15.8-15.67,15.8-15.67-7.07-15.67-15.8ZM446.06,84.04c0,6.59,4.67,11.44,11,11.44s11-4.84,11-11.44-4.67-11.48-11-11.48-11,4.84-11,11.48Z"/>
          <path class="cls-4" d="M488.36,68.72h10.69c8.21,0,14.8,6.85,14.8,15.28s-6.37,15.28-14.8,15.28h-10.69v-30.55ZM498.53,94.95c6.24,0,10.69-4.71,10.69-10.96s-4.5-11.13-10.69-11.13h-5.72v22.08h5.72Z"/>
          <path class="cls-4" d="M518.56,68.72h16.93v4.23h-12.48v8.34h12.09v4.1h-12.09v9.51h12.74v4.36h-17.2v-30.55Z"/>
        </g>
        <g>
          <path class="cls-4" d="M13.86,120.34c-.08-.18-.25-.3-.45-.3s-.38.12-.45.3L.04,151.46c-.06.15-.05.32.05.46.09.14.24.22.41.22h4.71c.2,0,.38-.12.46-.31l2.45-6.15h10.6l2.45,6.15c.07.19.25.31.46.31h4.71c.16,0,.32-.08.41-.22.09-.14.11-.31.05-.46l-12.92-31.12ZM16.71,140.73h-6.64l3.34-8.47,3.3,8.47Z"/>
          <path class="cls-4" d="M53.96,120.6h-4.19c-.27,0-.49.22-.49.49v17.37l-14.76-17.69c-.09-.11-.23-.18-.38-.18h-4.1c-.27,0-.49.22-.49.49v30.55c0,.27.22.49.49.49h4.19c.27,0,.49-.22.49-.49v-22.24l18.86,23.07c.09.12.24.18.38.18.06,0,.11,0,.16-.03.2-.07.33-.25.33-.46v-31.08c0-.27-.22-.49-.49-.49Z"/>
          <path class="cls-4" d="M71.04,120.34c-.08-.18-.25-.3-.45-.3s-.38.12-.45.3l-12.92,31.12c-.06.15-.05.32.05.46.09.14.24.22.41.22h4.71c.2,0,.38-.12.46-.31l2.45-6.15h10.6l2.45,6.15c.07.19.25.31.46.31h4.71c.16,0,.32-.08.41-.22.09-.14.11-.31.05-.46l-12.92-31.12ZM73.88,140.73h-6.64l3.34-8.47,3.3,8.47Z"/>
          <path class="cls-4" d="M67.97,119.4h3.27c.14,0,.27-.06.36-.16l5.15-5.67c.13-.14.16-.35.09-.53-.08-.18-.25-.29-.45-.29h-4.28c-.16,0-.3.07-.4.2l-4.15,5.67c-.11.15-.13.35-.04.51.08.16.25.27.44.27Z"/>
          <path class="cls-4" d="M104.37,146.79h-11.99v-25.7c0-.27-.22-.49-.49-.49h-4.45c-.27,0-.49.22-.49.49v30.55c0,.27.22.49.49.49h16.94c.27,0,.49-.22.49-.49v-4.36c0-.27-.22-.49-.49-.49Z"/>
          <rect class="cls-4" x="108.2" y="120.6" width="5.43" height="31.53" rx=".49" ry=".49"/>
          <path class="cls-4" d="M131.43,133.31h-4.28c-2.3,0-3.96-1.59-3.96-3.79s1.67-3.79,3.96-3.79h8.99c.27,0,.49-.22.49-.49v-4.15c0-.27-.22-.49-.49-.49h-9.51c-4.94,0-8.96,4-8.96,8.91s4.02,8.91,8.96,8.91h4.02c2.37,0,4.22,1.84,4.22,4.18s-1.89,4.18-4.22,4.18h-11.04c-.27,0-.49.22-.49.49v4.36c0,.27.22.49.49.49h11.48c5.23,0,9.48-4.27,9.48-9.53s-4.18-9.31-9.13-9.31Z"/>
          <rect class="cls-4" x="144.12" y="120.6" width="5.43" height="31.53" rx=".49" ry=".49"/>
          <path class="cls-4" d="M167.35,133.31h-4.28c-2.3,0-3.96-1.59-3.96-3.79s1.67-3.79,3.96-3.79h8.99c.27,0,.49-.22.49-.49v-4.15c0-.27-.22-.49-.49-.49h-9.51c-4.94,0-8.96,4-8.96,8.91s4.02,8.91,8.96,8.91h4.02c2.37,0,4.22,1.84,4.22,4.18s-1.89,4.18-4.22,4.18h-11.04c-.27,0-.49.22-.49.49v4.36c0,.27.22.49.49.49h11.48c5.23,0,9.48-4.27,9.48-9.53s-4.18-9.31-9.13-9.31Z"/>
          <path class="cls-4" d="M202.18,120.6h-10.69c-.27,0-.49.22-.49.49v30.55c0,.27.22.49.49.49h10.69c8.57,0,15.29-6.93,15.29-15.77s-6.86-15.77-15.29-15.77ZM211.85,136.37c0,6.06-4.29,10.46-10.2,10.46h-5.23v-21.1h5.23c5.82,0,10.2,4.57,10.2,10.64Z"/>
          <path class="cls-4" d="M238.88,146.79h-12.25v-8.53h11.6c.27,0,.49-.22.49-.49v-4.1c0-.27-.22-.49-.49-.49h-11.6v-7.36h11.99c.27,0,.49-.22.49-.49v-4.23c0-.27-.22-.49-.49-.49h-16.93c-.27,0-.49.22-.49.49v30.55c0,.27.22.49.49.49h17.2c.27,0,.49-.22.49-.49v-4.36c0-.27-.22-.49-.49-.49Z"/>
          <path class="cls-4" d="M275.28,121.4c-1.67-.81-4.08-1.32-6.28-1.32-9.21,0-16.16,7.02-16.16,16.33s6.95,16.29,16.16,16.29c2.2,0,4.61-.5,6.28-1.32.17-.08.28-.25.28-.44v-4.76c0-.18-.09-.34-.25-.43-.15-.09-.34-.08-.49,0-1.83,1.1-3.63,1.59-5.81,1.59-6.09,0-10.51-4.6-10.51-10.95s4.42-10.99,10.51-10.99c2.19,0,3.98.49,5.81,1.59.15.09.34.09.49,0,.15-.09.25-.25.25-.43v-4.76c0-.19-.11-.36-.28-.44Z"/>
          <rect class="cls-4" x="280.16" y="120.6" width="5.43" height="31.53" rx=".49" ry=".49"/>
          <path class="cls-4" d="M311.72,121.4c-1.67-.81-4.08-1.32-6.28-1.32-9.21,0-16.16,7.02-16.16,16.33s6.95,16.29,16.16,16.29c2.2,0,4.61-.5,6.28-1.32.17-.08.28-.25.28-.44v-4.76c0-.18-.09-.34-.25-.43-.15-.09-.34-.08-.49,0-1.83,1.1-3.62,1.59-5.81,1.59-6.09,0-10.51-4.6-10.51-10.95s4.42-10.99,10.51-10.99c2.19,0,3.98.49,5.81,1.59.15.09.34.09.49,0s.25-.25.25-.43v-4.76c0-.19-.11-.36-.28-.44Z"/>
          <path class="cls-4" d="M334.03,146.79h-11.99v-25.7c0-.27-.22-.49-.49-.49h-4.45c-.27,0-.49.22-.49.49v30.55c0,.27.22.49.49.49h16.93c.27,0,.49-.22.49-.49v-4.36c0-.27-.22-.49-.49-.49Z"/>
          <path class="cls-4" d="M352.14,120.08c-9.21,0-16.16,7.02-16.16,16.33s6.95,16.29,16.16,16.29,16.16-7,16.16-16.29-6.95-16.33-16.16-16.33ZM362.65,136.41c0,6.34-4.42,10.95-10.51,10.95s-10.51-4.6-10.51-10.95,4.42-10.99,10.51-10.99,10.51,4.62,10.51,10.99Z"/>
          <path class="cls-4" d="M394.13,120.6h-10.69c-.27,0-.49.22-.49.49v30.55c0,.27.22.49.49.49h10.69c8.57,0,15.29-6.93,15.29-15.77s-6.86-15.77-15.29-15.77ZM388.38,125.73h5.23c5.82,0,10.2,4.57,10.2,10.64s-4.29,10.46-10.2,10.46h-5.23v-21.1Z"/>
          <path class="cls-4" d="M430.83,146.79h-12.25v-8.53h11.6c.27,0,.49-.22.49-.49v-4.1c0-.27-.22-.49-.49-.49h-11.6v-7.36h11.99c.27,0,.49-.22.49-.49v-4.23c0-.27-.22-.49-.49-.49h-16.93c-.27,0-.49.22-.49.49v30.55c0,.27.22.49.49.49h17.2c.27,0,.49-.22.49-.49v-4.36c0-.27-.22-.49-.49-.49Z"/>
          <path class="cls-4" d="M469.81,120.61h-4.93c-.2,0-.39.13-.46.32l-7.18,19.2-7.18-19.2c-.07-.19-.25-.32-.46-.32h-4.93c-.16,0-.32.08-.41.22-.09.14-.11.31-.05.46l12.57,31.07c.07.19.25.31.45.31s.38-.12.45-.31l12.57-31.07c.06-.15.04-.32-.05-.46-.09-.14-.24-.22-.41-.22Z"/>
          <rect class="cls-4" x="473.38" y="120.6" width="5.43" height="31.53" rx=".49" ry=".49"/>
          <path class="cls-4" d="M495.56,120.6h-10.69c-.27,0-.49.22-.49.49v30.55c0,.27.22.49.49.49h10.69c8.57,0,15.29-6.93,15.29-15.77s-6.86-15.77-15.29-15.77ZM505.24,136.37c0,6.06-4.29,10.46-10.2,10.46h-5.23v-21.1h5.23c5.82,0,10.2,4.57,10.2,10.64Z"/>
          <path class="cls-4" d="M537.65,151.46l-12.92-31.12c-.08-.18-.25-.3-.45-.3s-.38.12-.45.3l-12.92,31.12c-.06.15-.05.32.05.46.09.14.24.22.41.22h4.71c.2,0,.38-.12.46-.31l2.45-6.15h10.6l2.45,6.15c.07.19.25.31.46.31h4.71c.16,0,.32-.08.41-.22.09-.14.11-.31.05-.46ZM527.57,140.73h-6.64l3.34-8.47,3.3,8.47Z"/>
        </g>
        <g>
          <path class="cls-4" d="M86.86,204.02h-4.45v-12.88l-9.43-17.68h5.02l6.63,13.27,6.63-13.27h5.02l-9.43,17.68v12.88Z"/>
          <path class="cls-4" d="M111.26,173.47h10.69c8.21,0,14.8,6.85,14.8,15.28s-6.37,15.28-14.8,15.28h-10.69v-30.55ZM121.43,199.7c6.24,0,10.69-4.71,10.69-10.96s-4.5-11.13-10.69-11.13h-5.72v22.08h5.72Z"/>
          <path class="cls-4" d="M141.46,173.47h4.45v30.55h-4.45v-30.55Z"/>
          <path class="cls-4" d="M164.2,186.17c4.8,0,8.64,4.1,8.64,8.82s-3.8,9.03-8.99,9.03h-11.48v-4.36h11.04c2.62,0,4.71-2.1,4.71-4.67s-2.1-4.67-4.71-4.67h-4.02c-4.71,0-8.47-3.75-8.47-8.42s3.75-8.42,8.47-8.42h9.51v4.15h-8.99c-2.58,0-4.45,1.83-4.45,4.28s1.88,4.28,4.45,4.28h4.28Z"/>
          <path class="cls-4" d="M177.38,173.47h16.93v4.23h-12.48v8.34h12.09v4.1h-12.09v9.51h12.74v4.36h-17.2v-30.55Z"/>
          <path class="cls-4" d="M199.73,173.47h4.1l15.63,18.72v-18.72h4.19v31.08l-19.73-24.14v23.61h-4.19v-30.55ZM209.64,170.41c-.92,0-1.44.44-1.83,1.35l-2.4-1.31c.83-2.31,2.62-2.92,4.23-2.92s2.75.87,4.06.87c.92,0,1.48-.44,1.88-1.35l2.36,1.31c-.83,2.31-2.62,2.92-4.23,2.92-1.4,0-2.66-.87-4.06-.87Z"/>
          <path class="cls-4" d="M228.1,188.79c0-8.77,6.59-15.84,15.67-15.84s15.67,7.07,15.67,15.84-6.59,15.8-15.67,15.8-15.67-7.07-15.67-15.8ZM232.77,188.79c0,6.59,4.67,11.44,11,11.44s11-4.84,11-11.44-4.67-11.48-11-11.48-11,4.84-11,11.48Z"/>
          <path class="cls-4" d="M286.8,186.17c4.8,0,8.64,4.1,8.64,8.82s-3.8,9.03-8.99,9.03h-11.48v-4.36h11.04c2.62,0,4.71-2.1,4.71-4.67s-2.1-4.67-4.71-4.67h-4.02c-4.71,0-8.47-3.75-8.47-8.42s3.75-8.42,8.47-8.42h9.51v4.15h-8.99c-2.58,0-4.45,1.83-4.45,4.28s1.88,4.28,4.45,4.28h4.28Z"/>
          <path class="cls-4" d="M304.43,173.47v20.73c0,3.8,2.71,6.11,6.02,6.11s6.07-2.31,6.07-6.11v-20.73h4.45v20.73c0,6.46-4.71,10.39-10.56,10.39s-10.43-3.84-10.43-10.39v-20.73h4.45Z"/>
          <path class="cls-4" d="M338.83,186.17c4.8,0,8.64,4.1,8.64,8.82s-3.8,9.03-8.99,9.03h-11.48v-4.36h11.04c2.62,0,4.71-2.1,4.71-4.67s-2.1-4.67-4.71-4.67h-4.02c-4.71,0-8.47-3.75-8.47-8.42s3.75-8.42,8.47-8.42h9.51v4.15h-8.99c-2.58,0-4.45,1.83-4.45,4.28s1.88,4.28,4.45,4.28h4.28Z"/>
          <path class="cls-4" d="M356.59,177.62h-7.55v-4.15h19.55v4.15h-7.55v26.41h-4.45v-26.41Z"/>
          <path class="cls-4" d="M373.04,173.47h16.93v4.23h-12.48v8.34h12.09v4.1h-12.09v9.51h12.74v4.36h-17.2v-30.55Z"/>
          <path class="cls-4" d="M395.39,173.47h4.1l15.63,18.72v-18.72h4.19v31.08l-19.73-24.14v23.61h-4.19v-30.55Z"/>
          <path class="cls-4" d="M431.09,177.62h-7.55v-4.15h19.55v4.15h-7.55v26.41h-4.45v-26.41Z"/>
          <path class="cls-4" d="M460.42,197.56h-11.26l-2.58,6.46h-4.71l12.92-31.12,12.92,31.12h-4.71l-2.58-6.46ZM450.73,193.59h8.07l-4.02-10.3-4.06,10.3Z"/>
          <path class="cls-4" d="M492.46,194.9c0,4.89-4.02,9.12-8.95,9.12h-11.87v-30.55h11.65c4.54,0,8.25,3.71,8.25,8.25,0,2.79-1.57,4.76-3.14,6.15,2.4,1.31,4.06,3.8,4.06,7.03ZM476.09,177.62v8.42h6.46c2.58,0,4.36-1.88,4.36-4.28s-1.75-4.15-4.36-4.15h-6.46ZM482.77,199.7c3.06,0,5.06-2.14,5.06-4.8,0-2.79-2.01-4.84-5.06-4.84h-6.68v9.65h6.68Z"/>
          <path class="cls-4" d="M497.3,173.47h4.45v26.19h12.48v4.36h-16.93v-30.55Z"/>
          <path class="cls-4" d="M518.56,173.47h16.93v4.23h-12.48v8.34h12.09v4.1h-12.09v9.51h12.74v4.36h-17.2v-30.55Z"/>
        </g>
      </g>
      <path class="cls-1" d="M569.19,228.79c-.81,0-1.47-.66-1.47-1.47V45.46c0-.81.66-1.47,1.47-1.47s1.47.66,1.47,1.47v181.86c0,.81-.66,1.47-1.47,1.47Z"/>
    </g>
  </g>
</svg>